<svg width="1440" height="919" viewBox="0 0 1440 919" fill="none" xmlns="http://www.w3.org/2000/svg">
<rect y="12.5" width="1440" height="906" fill="#FFFFF2"/>
<path d="M884.021 627.955C884.913 631.106 885.757 634.294 886.712 637.442C888.181 642.252 889.231 647.233 891.291 651.827C896.73 663.912 906.494 671.473 919.954 674.74C926.493 676.322 933.1 677.759 940.117 679.368C937.129 680.112 934.561 680.743 931.971 681.422C926.148 682.975 920.138 684.073 914.559 686.219C901.762 691.127 893.72 700.254 890.229 712.85C888.599 718.704 887.211 724.631 885.683 730.529C885.591 730.924 885.458 731.273 885.211 732.066C883.931 727.509 882.836 723.348 881.541 719.219C880.228 714.995 879.235 710.616 877.271 706.67C871.362 694.736 861.252 687.521 847.682 684.555C841.634 683.237 835.58 681.8 829.528 680.161C833.459 679.176 837.393 678.249 841.31 677.229C846.715 675.848 852.292 674.887 857.337 672.372C868.689 666.744 875.964 658.076 879.045 646.292C880.626 640.215 882.155 634.116 883.711 628.028C883.836 628.022 883.947 627.982 884.021 627.955Z" fill="#E1D5E3"/>
<path d="M1292.08 140.471C1293.36 143.731 1294.6 147.036 1295.95 150.287C1298.03 155.251 1299.68 160.445 1302.36 165.116C1309.45 177.397 1320.67 184.383 1335.39 186.385C1342.54 187.353 1349.75 188.159 1357.41 189.102C1354.3 190.224 1351.63 191.178 1348.93 192.187C1342.88 194.482 1336.58 196.313 1330.85 199.214C1317.7 205.852 1310.07 216.463 1307.68 230.272C1306.56 236.691 1305.7 243.16 1304.69 249.614C1304.63 250.045 1304.53 250.432 1304.35 251.304C1302.5 246.588 1300.89 242.273 1299.07 238.015C1297.22 233.658 1295.7 229.099 1293.19 225.109C1285.62 213.039 1274.06 206.461 1259.25 204.791C1252.65 204.051 1246.04 203.185 1239.4 202.103C1243.5 200.621 1247.6 199.201 1251.67 197.683C1257.3 195.617 1263.15 193.98 1268.28 190.745C1279.8 183.498 1286.66 173.46 1288.7 160.562C1289.75 153.911 1290.74 147.242 1291.75 140.582C1291.89 140.563 1292 140.508 1292.08 140.471Z" fill="#E1D5E3"/>
<path d="M1217.88 528.373C1220.9 536.516 1223.79 544.767 1226.97 552.891C1231.86 565.299 1235.67 578.244 1242.08 589.969C1258.98 620.802 1286.38 638.84 1322.66 644.81C1340.29 647.697 1358.07 650.188 1376.97 653.052C1369.21 655.606 1362.55 657.779 1355.84 660.084C1340.76 665.331 1325.09 669.416 1310.78 676.184C1277.95 691.667 1258.57 717.351 1251.95 751.296C1248.86 767.075 1246.42 782.998 1243.6 798.87C1243.44 799.931 1243.16 800.88 1242.67 803.023C1238.34 791.244 1234.58 780.473 1230.29 769.826C1225.94 758.934 1222.4 747.567 1216.39 737.534C1198.28 707.191 1170.03 690.136 1133.52 684.983C1117.24 682.695 1100.93 680.095 1084.58 676.963C1094.77 673.585 1104.99 670.363 1115.13 666.896C1129.15 662.185 1143.7 658.547 1156.52 650.912C1185.39 633.811 1202.83 609.491 1208.53 577.77C1211.45 561.412 1214.23 545.007 1217.07 528.626C1217.41 528.587 1217.69 528.458 1217.88 528.373Z" fill="#E1D5E3"/>
<path d="M134.947 351.133C136.126 354.444 137.255 357.798 138.5 361.101C140.413 366.148 141.89 371.406 144.422 376.184C151.102 388.75 162.095 396.198 176.743 398.814C183.858 400.08 191.036 401.186 198.666 402.449C195.518 403.439 192.812 404.281 190.086 405.177C183.959 407.216 177.599 408.781 171.775 411.44C158.417 417.521 150.448 427.803 147.6 441.498C146.267 447.864 145.2 454.291 143.981 460.696C143.91 461.125 143.793 461.507 143.583 462.371C141.891 457.582 140.423 453.204 138.744 448.874C137.04 444.443 135.666 439.826 133.283 435.734C126.111 423.359 114.772 416.304 100.028 414.017C93.4567 413.002 86.8708 411.86 80.2728 410.502C84.4133 409.192 88.5613 407.945 92.684 406.599C98.3757 404.771 104.282 403.38 109.507 400.363C121.268 393.605 128.447 383.864 130.914 371.064C132.177 364.463 133.384 357.842 134.62 351.231C134.754 351.217 134.87 351.167 134.947 351.133Z" fill="#E1D5E3"/>
<path d="M1035.34 193.496C1036.15 195.73 1036.93 197.993 1037.78 200.222C1039.09 203.627 1040.11 207.174 1041.84 210.398C1046.4 218.877 1053.84 223.901 1063.72 225.664C1068.52 226.517 1073.36 227.262 1078.5 228.113C1076.38 228.782 1074.57 229.35 1072.73 229.955C1068.62 231.332 1064.34 232.389 1060.43 234.184C1051.46 238.29 1046.14 245.229 1044.29 254.47C1043.42 258.766 1042.73 263.103 1041.94 267.425C1041.9 267.714 1041.82 267.972 1041.68 268.555C1040.52 265.324 1039.51 262.37 1038.36 259.448C1037.19 256.459 1036.24 253.344 1034.62 250.583C1029.73 242.234 1022.06 237.475 1012.12 235.934C1007.69 235.25 1003.25 234.48 998.796 233.565C1001.58 232.681 1004.37 231.839 1007.14 230.93C1010.96 229.695 1014.93 228.756 1018.44 226.719C1026.33 222.157 1031.12 215.583 1032.72 206.945C1033.54 202.491 1034.32 198.023 1035.12 193.562C1035.21 193.553 1035.29 193.519 1035.34 193.496Z" fill="#E1D5E3"/>
<path d="M436.744 641.969C437.377 644.259 437.974 646.576 438.652 648.866C439.694 652.364 440.433 655.98 441.904 659.331C445.787 668.144 452.812 673.745 462.525 676.291C467.244 677.525 472.012 678.654 477.077 679.914C474.914 680.411 473.057 680.832 471.182 681.288C466.969 682.331 462.621 683.043 458.582 684.519C449.316 687.893 443.469 694.383 440.897 703.443C439.696 707.654 438.67 711.921 437.543 716.165C437.475 716.449 437.378 716.7 437.196 717.27C436.289 713.958 435.514 710.933 434.594 707.93C433.663 704.858 432.962 701.677 431.558 698.797C427.335 690.086 420.058 684.731 410.265 682.401C405.9 681.364 401.531 680.242 397.164 678.975C400.008 678.316 402.855 677.7 405.689 677.015C409.6 676.091 413.634 675.472 417.289 673.723C425.514 669.808 430.804 663.64 433.077 655.161C434.243 650.787 435.372 646.398 436.52 642.017C436.61 642.015 436.691 641.987 436.744 641.969Z" fill="#E1D5E3"/>
</svg>
