<svg width="50" height="50" viewBox="0 0 50 50" fill="none" xmlns="http://www.w3.org/2000/svg">
<path d="M45.6835 24.1813C45.2627 23.1647 44.3606 22.9209 43.7502 22.8626V16.6667C43.7502 14.3688 41.8814 12.5001 39.5835 12.5001H27.0835V9.60425C27.7189 9.03342 28.1252 8.21258 28.1252 7.29175C28.1252 6.46295 27.7959 5.66809 27.2099 5.08204C26.6238 4.49599 25.829 4.16675 25.0002 4.16675C24.1714 4.16675 23.3765 4.49599 22.7905 5.08204C22.2044 5.66809 21.8752 6.46295 21.8752 7.29175C21.8752 8.21258 22.2814 9.03342 22.9168 9.60425V12.5001H10.4168C8.11891 12.5001 6.25016 14.3688 6.25016 16.6667V22.9105L6.07933 22.923C5.55427 22.9609 5.06303 23.1962 4.70437 23.5815C4.3457 23.9668 4.14621 24.4737 4.146 25.0001V29.1667C4.146 29.7193 4.36549 30.2492 4.75619 30.6399C5.14689 31.0306 5.67679 31.2501 6.22933 31.2501H6.25016V41.6668C6.25016 43.9647 8.11891 45.8334 10.4168 45.8334H39.5835C41.8814 45.8334 43.7502 43.9647 43.7502 41.6668V31.2501C44.3027 31.2501 44.8326 31.0306 45.2233 30.6399C45.614 30.2492 45.8335 29.7193 45.8335 29.1667V25.1293C45.8579 24.8059 45.8066 24.4813 45.6835 24.1813ZM10.4168 41.6668V16.6667H39.5835L39.5856 24.9918L39.5835 25.0001V29.1667L39.5856 29.1772L39.5877 41.6668H10.4168Z" fill="black"/>
<path d="M17.7085 29.1666C19.4344 29.1666 20.8335 27.3011 20.8335 24.9999C20.8335 22.6987 19.4344 20.8333 17.7085 20.8333C15.9826 20.8333 14.5835 22.6987 14.5835 24.9999C14.5835 27.3011 15.9826 29.1666 17.7085 29.1666Z" fill="black"/>
<path d="M32.2915 29.1666C34.0174 29.1666 35.4165 27.3011 35.4165 24.9999C35.4165 22.6987 34.0174 20.8333 32.2915 20.8333C30.5656 20.8333 29.1665 22.6987 29.1665 24.9999C29.1665 27.3011 30.5656 29.1666 32.2915 29.1666Z" fill="black"/>
<path d="M16.6665 33.3333H33.3332V37.4999H16.6665V33.3333Z" fill="black"/>
</svg>
