<svg width="49" height="34" viewBox="0 0 49 34" fill="none" xmlns="http://www.w3.org/2000/svg">
<path d="M24.5 10.3181C22.7279 10.3181 21.0283 11.0221 19.7752 12.2752C18.5222 13.5283 17.8182 15.2278 17.8182 17C17.8182 18.7721 18.5222 20.4716 19.7752 21.7247C21.0283 22.9778 22.7279 23.6818 24.5 23.6818C26.2721 23.6818 27.9717 22.9778 29.2248 21.7247C30.4778 20.4716 31.1818 18.7721 31.1818 17C31.1818 15.2278 30.4778 13.5283 29.2248 12.2752C27.9717 11.0221 26.2721 10.3181 24.5 10.3181ZM24.5 28.1363C21.5465 28.1363 18.7139 26.963 16.6254 24.8746C14.5369 22.7861 13.3636 19.9535 13.3636 17C13.3636 14.0464 14.5369 11.2138 16.6254 9.12536C18.7139 7.03688 21.5465 5.86359 24.5 5.86359C27.4535 5.86359 30.2861 7.03688 32.3746 9.12536C34.4631 11.2138 35.6364 14.0464 35.6364 17C35.6364 19.9535 34.4631 22.7861 32.3746 24.8746C30.2861 26.963 27.4535 28.1363 24.5 28.1363ZM24.5 0.29541C13.3636 0.29541 3.85318 7.22223 0 17C3.85318 26.7777 13.3636 33.7045 24.5 33.7045C35.6364 33.7045 45.1468 26.7777 49 17C45.1468 7.22223 35.6364 0.29541 24.5 0.29541Z" fill="white"/>
</svg>
