<svg width="1440" height="919" viewBox="0 0 1440 919" fill="none" xmlns="http://www.w3.org/2000/svg">
<rect y="12.5" width="1440" height="906" fill="#FFFFF2"/>
<path d="M884.021 627.955C884.913 631.106 885.757 634.294 886.712 637.442C888.18 642.252 889.231 647.233 891.291 651.827C896.73 663.912 906.494 671.473 919.954 674.74C926.493 676.322 933.099 677.759 940.117 679.368C937.128 680.112 934.561 680.743 931.971 681.422C926.147 682.975 920.137 684.073 914.558 686.219C901.762 691.127 893.72 700.254 890.229 712.85C888.598 718.704 887.211 724.631 885.683 730.529C885.591 730.924 885.458 731.273 885.21 732.066C883.931 727.509 882.835 723.348 881.54 719.219C880.228 714.995 879.234 710.616 877.271 706.67C871.362 694.736 861.252 687.521 847.682 684.555C841.634 683.237 835.58 681.8 829.528 680.161C833.459 679.176 837.393 678.249 841.309 677.229C846.714 675.848 852.292 674.887 857.337 672.372C868.689 666.744 875.964 658.076 879.045 646.292C880.626 640.215 882.155 634.116 883.71 628.028C883.836 628.022 883.947 627.982 884.021 627.955Z" fill="#E1D5E3"/>
<path d="M1297.08 86.971C1298.36 90.231 1299.6 93.5364 1300.95 96.7867C1303.03 101.751 1304.68 106.945 1307.36 111.616C1314.45 123.897 1325.67 130.883 1340.39 132.885C1347.54 133.853 1354.75 134.659 1362.41 135.602C1359.3 136.724 1356.63 137.678 1353.93 138.687C1347.88 140.982 1341.58 142.813 1335.85 145.714C1322.7 152.352 1315.07 162.963 1312.68 176.772C1311.56 183.191 1310.7 189.66 1309.69 196.114C1309.63 196.545 1309.53 196.932 1309.35 197.804C1307.5 193.088 1305.89 188.773 1304.07 184.515C1302.22 180.158 1300.7 175.599 1298.19 171.609C1290.62 159.539 1279.06 152.961 1264.25 151.291C1257.65 150.551 1251.04 149.685 1244.4 148.603C1248.5 147.121 1252.6 145.701 1256.67 144.183C1262.3 142.117 1268.15 140.48 1273.28 137.245C1284.8 129.998 1291.66 119.96 1293.7 107.062C1294.75 100.411 1295.74 93.7423 1296.75 87.0824C1296.89 87.0629 1297 87.0078 1297.08 86.971Z" fill="#E1D5E3"/>
<path d="M1217.88 528.373C1220.9 536.516 1223.79 544.767 1226.97 552.891C1231.86 565.299 1235.67 578.244 1242.08 589.969C1258.98 620.802 1286.38 638.84 1322.66 644.81C1340.29 647.697 1358.07 650.188 1376.97 653.052C1369.21 655.606 1362.55 657.779 1355.84 660.084C1340.76 665.331 1325.09 669.416 1310.78 676.184C1277.95 691.667 1258.57 717.351 1251.95 751.296C1248.86 767.075 1246.42 782.998 1243.6 798.87C1243.44 799.931 1243.16 800.88 1242.67 803.023C1238.34 791.244 1234.58 780.473 1230.29 769.826C1225.94 758.934 1222.4 747.567 1216.39 737.534C1198.28 707.191 1170.03 690.136 1133.52 684.983C1117.24 682.695 1100.93 680.095 1084.58 676.963C1094.77 673.585 1104.99 670.363 1115.13 666.896C1129.15 662.185 1143.7 658.547 1156.52 650.912C1185.39 633.811 1202.83 609.491 1208.53 577.77C1211.45 561.412 1214.23 545.007 1217.07 528.626C1217.41 528.587 1217.69 528.458 1217.88 528.373Z" fill="#E1D5E3"/>
<path d="M134.947 351.133C136.125 354.444 137.255 357.798 138.5 361.101C140.413 366.148 141.89 371.406 144.422 376.184C151.102 388.75 162.095 396.198 176.742 398.814C183.858 400.08 191.036 401.186 198.666 402.449C195.518 403.439 192.812 404.281 190.086 405.177C183.959 407.216 177.599 408.781 171.775 411.44C158.416 417.521 150.448 427.803 147.599 441.498C146.267 447.864 145.2 454.291 143.981 460.696C143.91 461.125 143.792 461.507 143.583 462.371C141.891 457.582 140.423 453.204 138.744 448.874C137.04 444.443 135.666 439.826 133.283 435.734C126.111 423.359 114.772 416.304 100.028 414.017C93.4566 413.002 86.8706 411.86 80.2727 410.502C84.4132 409.192 88.5612 407.945 92.6838 406.599C98.3756 404.771 104.282 403.38 109.507 400.363C121.268 393.605 128.447 383.864 130.914 371.064C132.177 364.463 133.384 357.842 134.62 351.231C134.754 351.217 134.87 351.167 134.947 351.133Z" fill="#E1D5E3"/>
<path d="M1087.34 137.996C1088.15 140.23 1088.93 142.493 1089.78 144.722C1091.09 148.127 1092.11 151.674 1093.84 154.898C1098.4 163.377 1105.84 168.401 1115.72 170.164C1120.52 171.017 1125.36 171.762 1130.5 172.613C1128.38 173.282 1126.57 173.85 1124.73 174.455C1120.62 175.832 1116.34 176.889 1112.43 178.684C1103.46 182.79 1098.14 189.729 1096.29 198.97C1095.42 203.266 1094.73 207.603 1093.94 211.925C1093.9 212.214 1093.82 212.472 1093.68 213.055C1092.52 209.824 1091.51 206.87 1090.36 203.948C1089.19 200.959 1088.24 197.844 1086.62 195.083C1081.73 186.734 1074.06 181.975 1064.12 180.434C1059.69 179.75 1055.25 178.98 1050.8 178.065C1053.58 177.181 1056.37 176.339 1059.14 175.43C1062.96 174.195 1066.93 173.256 1070.44 171.219C1078.33 166.657 1083.12 160.083 1084.72 151.445C1085.54 146.991 1086.32 142.523 1087.12 138.062C1087.21 138.053 1087.29 138.019 1087.34 137.996Z" fill="#E1D5E3"/>
<path d="M436.744 641.969C437.377 644.259 437.974 646.576 438.652 648.866C439.694 652.364 440.433 655.98 441.904 659.331C445.787 668.144 452.812 673.745 462.525 676.291C467.244 677.525 472.012 678.654 477.077 679.914C474.914 680.411 473.057 680.832 471.182 681.288C466.968 682.331 462.621 683.043 458.582 684.519C449.316 687.893 443.469 694.383 440.897 703.443C439.696 707.654 438.67 711.921 437.543 716.165C437.475 716.449 437.378 716.7 437.196 717.27C436.289 713.958 435.514 710.933 434.594 707.93C433.662 704.858 432.961 701.677 431.558 698.797C427.335 690.086 420.058 684.731 410.264 682.401C405.9 681.364 401.531 680.242 397.164 678.975C400.008 678.316 402.855 677.7 405.688 677.015C409.6 676.091 413.634 675.472 417.289 673.723C425.514 669.808 430.804 663.64 433.077 655.161C434.243 650.787 435.372 646.398 436.52 642.017C436.61 642.015 436.691 641.987 436.744 641.969Z" fill="#E1D5E3"/>
</svg>
