<svg width="1440" height="918" viewBox="0 0 1440 918" fill="none" xmlns="http://www.w3.org/2000/svg">
<rect y="12" width="1440" height="906" fill="#FFFFF2"/>
<path d="M129.387 88C130.046 88.8216 130.696 89.6604 131.372 90.4735C132.408 91.7145 133.349 93.0582 134.522 94.1623C137.611 97.0636 141.317 98.0907 145.494 97.3889C147.522 97.0465 149.551 96.6528 151.716 96.2591C150.98 96.8497 150.347 97.3546 149.713 97.8767C148.293 99.0578 146.761 100.128 145.485 101.454C142.558 104.493 141.506 108.19 142.173 112.349C142.481 114.284 142.866 116.209 143.209 118.144C143.234 118.272 143.243 118.392 143.277 118.657C142.327 117.468 141.48 116.372 140.581 115.311C139.666 114.224 138.818 113.051 137.757 112.127C134.556 109.328 130.799 108.447 126.631 109.251C124.773 109.611 122.899 109.936 120.999 110.201C121.966 109.422 122.942 108.661 123.9 107.873C125.227 106.795 126.656 105.819 127.735 104.45C130.165 101.377 131.064 97.911 130.388 94.0424C130.037 92.0483 129.669 90.0541 129.31 88.0599C129.344 88.0428 129.369 88.0171 129.387 88Z" fill="#E1D5E3"/>
<path d="M1325.39 114C1326.05 114.822 1326.7 115.66 1327.37 116.473C1328.41 117.714 1329.35 119.058 1330.52 120.162C1333.61 123.064 1337.32 124.091 1341.49 123.389C1343.52 123.047 1345.55 122.653 1347.72 122.259C1346.98 122.85 1346.35 123.355 1345.71 123.877C1344.29 125.058 1342.76 126.128 1341.49 127.454C1338.56 130.493 1337.51 134.19 1338.17 138.349C1338.48 140.284 1338.87 142.209 1339.21 144.144C1339.24 144.272 1339.24 144.392 1339.28 144.657C1338.33 143.468 1337.48 142.372 1336.58 141.311C1335.67 140.224 1334.82 139.051 1333.76 138.127C1330.56 135.328 1326.8 134.447 1322.63 135.251C1320.77 135.611 1318.9 135.936 1317 136.201C1317.97 135.422 1318.94 134.661 1319.9 133.873C1321.23 132.795 1322.66 131.819 1323.74 130.45C1326.17 127.377 1327.07 123.911 1326.39 120.042C1326.04 118.048 1325.67 116.054 1325.31 114.06C1325.34 114.043 1325.37 114.017 1325.39 114Z" fill="#E1D5E3"/>
<path d="M930.664 591C932.444 593.224 934.202 595.495 936.029 597.697C938.827 601.056 941.371 604.694 944.539 607.683C952.888 615.539 962.902 618.319 974.187 616.419C979.668 615.492 985.149 614.426 991 613.36C989.011 614.959 987.3 616.326 985.588 617.74C981.75 620.937 977.61 623.834 974.164 627.425C966.255 635.651 963.41 645.661 965.214 656.923C966.047 662.159 967.087 667.373 968.013 672.61C968.082 672.957 968.105 673.282 968.198 674C965.631 670.779 963.341 667.813 960.913 664.94C958.438 661.997 956.149 658.823 953.281 656.32C944.632 648.743 934.48 646.357 923.217 648.535C918.199 649.508 913.134 650.388 908 651.107C910.613 648.998 913.25 646.936 915.84 644.804C919.424 641.884 923.286 639.243 926.2 635.535C932.768 627.217 935.196 617.832 933.369 607.359C932.421 601.96 931.427 596.561 930.456 591.162C930.548 591.116 930.617 591.046 930.664 591Z" fill="#E1D5E3"/>
<path d="M544.557 594C545.308 594.911 546.049 595.841 546.819 596.743C547.999 598.119 549.072 599.61 550.408 600.834C553.929 604.052 558.151 605.191 562.91 604.413C565.222 604.033 567.533 603.596 570 603.16C569.161 603.815 568.44 604.375 567.718 604.954C566.099 606.264 564.354 607.45 562.901 608.921C559.565 612.291 558.366 616.391 559.126 621.004C559.478 623.15 559.916 625.285 560.306 627.43C560.336 627.573 560.346 627.706 560.385 628C559.302 626.681 558.337 625.466 557.313 624.289C556.269 623.083 555.304 621.783 554.094 620.758C550.447 617.654 546.166 616.676 541.417 617.568C539.301 617.967 537.165 618.328 535 618.622C536.102 617.758 537.214 616.913 538.306 616.04C539.817 614.844 541.446 613.762 542.675 612.243C545.444 608.836 546.468 604.992 545.698 600.701C545.298 598.49 544.879 596.278 544.469 594.066C544.508 594.047 544.537 594.019 544.557 594Z" fill="#E1D5E3"/>
<path d="M699.107 88C700.137 89.2864 701.153 90.5997 702.21 91.8727C703.828 93.8157 705.299 95.9196 707.131 97.6482C711.959 102.191 717.75 103.799 724.277 102.7C727.447 102.164 730.616 101.548 734 100.931C732.85 101.856 731.86 102.647 730.87 103.464C728.65 105.313 726.256 106.988 724.264 109.065C719.69 113.822 718.045 119.611 719.088 126.124C719.569 129.152 720.171 132.168 720.706 135.196C720.746 135.397 720.76 135.585 720.813 136C719.329 134.137 718.004 132.422 716.6 130.76C715.169 129.059 713.845 127.223 712.187 125.776C707.185 121.394 701.313 120.013 694.8 121.273C691.898 121.836 688.969 122.345 686 122.76C687.511 121.541 689.036 120.348 690.534 119.116C692.607 117.427 694.84 115.899 696.525 113.755C700.324 108.945 701.728 103.518 700.671 97.4606C700.123 94.3384 699.548 91.2161 698.986 88.0938C699.04 88.067 699.08 88.0268 699.107 88Z" fill="#E1D5E3"/>
<path d="M1267.3 301C1269.21 303.385 1271.1 305.82 1273.06 308.181C1276.06 311.783 1278.78 315.684 1282.18 318.889C1291.13 327.312 1301.87 330.294 1313.97 328.257C1319.85 327.263 1325.73 326.12 1332 324.977C1329.87 326.691 1328.03 328.157 1326.2 329.673C1322.08 333.102 1317.64 336.207 1313.95 340.059C1305.47 348.879 1302.42 359.613 1304.35 371.688C1305.24 377.303 1306.36 382.894 1307.35 388.509C1307.43 388.882 1307.45 389.23 1307.55 390C1304.8 386.546 1302.34 383.366 1299.74 380.285C1297.08 377.13 1294.63 373.726 1291.55 371.042C1282.28 362.917 1271.39 360.358 1259.32 362.694C1253.94 363.737 1248.51 364.681 1243 365.452C1245.8 363.191 1248.63 360.979 1251.41 358.693C1255.25 355.563 1259.39 352.73 1262.52 348.755C1269.56 339.835 1272.16 329.772 1270.2 318.542C1269.19 312.752 1268.12 306.963 1267.08 301.174C1267.18 301.124 1267.25 301.05 1267.3 301Z" fill="#E1D5E3"/>
<path d="M1081.38 145C1082.67 146.608 1083.94 148.25 1085.26 149.841C1087.28 152.27 1089.12 154.899 1091.41 157.06C1097.45 162.739 1104.69 164.749 1112.85 163.375C1116.81 162.705 1120.77 161.935 1125 161.164C1123.56 162.32 1122.33 163.308 1121.09 164.33C1118.31 166.642 1115.32 168.735 1112.83 171.332C1107.11 177.278 1105.06 184.514 1106.36 192.655C1106.96 196.441 1107.71 200.209 1108.38 203.995C1108.43 204.246 1108.45 204.481 1108.52 205C1106.66 202.672 1105.01 200.528 1103.25 198.451C1101.46 196.323 1099.81 194.028 1097.73 192.219C1091.48 186.742 1084.14 185.017 1076 186.591C1072.37 187.295 1068.71 187.931 1065 188.451C1066.89 186.926 1068.79 185.436 1070.67 183.894C1073.26 181.784 1076.05 179.874 1078.16 177.194C1082.9 171.181 1084.66 164.397 1083.34 156.826C1082.65 152.923 1081.94 149.02 1081.23 145.117C1081.3 145.084 1081.35 145.034 1081.38 145Z" fill="#E1D5E3"/>
<path d="M1267.3 723C1269.21 725.385 1271.1 727.82 1273.06 730.181C1276.06 733.783 1278.78 737.684 1282.18 740.889C1291.13 749.312 1301.87 752.294 1313.97 750.257C1319.85 749.263 1325.73 748.12 1332 746.977C1329.87 748.691 1328.03 750.157 1326.2 751.673C1322.08 755.102 1317.64 758.207 1313.95 762.059C1305.47 770.879 1302.42 781.613 1304.35 793.688C1305.24 799.303 1306.36 804.894 1307.35 810.509C1307.43 810.882 1307.45 811.23 1307.55 812C1304.8 808.546 1302.34 805.366 1299.74 802.285C1297.08 799.13 1294.63 795.726 1291.55 793.042C1282.28 784.917 1271.39 782.358 1259.32 784.694C1253.94 785.737 1248.51 786.681 1243 787.452C1245.8 785.191 1248.63 782.979 1251.41 780.693C1255.25 777.563 1259.39 774.73 1262.52 770.755C1269.56 761.835 1272.16 751.772 1270.2 740.542C1269.19 734.752 1268.12 728.963 1267.08 723.174C1267.18 723.124 1267.25 723.05 1267.3 723Z" fill="#E1D5E3"/>
</svg>
