<svg width="21" height="21" viewBox="0 0 21 21" fill="none" xmlns="http://www.w3.org/2000/svg">
<path d="M10.0216 6.18274C9.10798 6.18274 8.21487 6.45366 7.45521 6.96124C6.69556 7.46883 6.10348 8.19028 5.75385 9.03436C5.40422 9.87844 5.31274 10.8072 5.49098 11.7033C5.66922 12.5994 6.10917 13.4225 6.75521 14.0685C7.40124 14.7146 8.22433 15.1545 9.12041 15.3327C10.0165 15.511 10.9453 15.4195 11.7894 15.0699C12.6334 14.7202 13.3549 14.1282 13.8625 13.3685C14.3701 12.6089 14.641 11.7157 14.641 10.8021C14.6397 9.57738 14.1526 8.40316 13.2866 7.53713C12.4206 6.6711 11.2463 6.18401 10.0216 6.18274ZM10.0216 13.8817C9.41252 13.8817 8.81711 13.7011 8.31068 13.3627C7.80424 13.0243 7.40952 12.5434 7.17643 11.9806C6.94335 11.4179 6.88236 10.7987 7.00119 10.2013C7.12001 9.60394 7.41332 9.05521 7.84401 8.62452C8.27469 8.19383 8.82342 7.90053 9.42081 7.78171C10.0182 7.66288 10.6374 7.72387 11.2001 7.95695C11.7628 8.19004 12.2438 8.58476 12.5822 9.09119C12.9206 9.59763 13.1012 10.193 13.1012 10.8021C13.1012 11.6189 12.7767 12.4022 12.1992 12.9797C11.6217 13.5573 10.8384 13.8817 10.0216 13.8817ZM14.641 0.793457H5.40222C3.97336 0.794985 2.60347 1.36327 1.59311 2.37363C0.582757 3.38398 0.0144679 4.75388 0.0129395 6.18274V15.4215C0.0144679 16.8504 0.582757 18.2203 1.59311 19.2306C2.60347 20.241 3.97336 20.8093 5.40222 20.8108H14.641C16.0698 20.8093 17.4397 20.241 18.4501 19.2306C19.4605 18.2203 20.0287 16.8504 20.0303 15.4215V6.18274C20.0287 4.75388 19.4605 3.38398 18.4501 2.37363C17.4397 1.36327 16.0698 0.794985 14.641 0.793457ZM18.4905 15.4215C18.4905 16.4425 18.0849 17.4216 17.363 18.1435C16.6411 18.8654 15.6619 19.271 14.641 19.271H5.40222C4.38127 19.271 3.40214 18.8654 2.68022 18.1435C1.9583 17.4216 1.55273 16.4425 1.55273 15.4215V6.18274C1.55273 5.16179 1.9583 4.18266 2.68022 3.46074C3.40214 2.73882 4.38127 2.33325 5.40222 2.33325H14.641C15.6619 2.33325 16.6411 2.73882 17.363 3.46074C18.0849 4.18266 18.4905 5.16179 18.4905 6.18274V15.4215ZM16.1808 5.79779C16.1808 6.0262 16.1131 6.24947 15.9862 6.43939C15.8593 6.6293 15.6789 6.77732 15.4679 6.86473C15.2569 6.95214 15.0247 6.97501 14.8006 6.93045C14.5766 6.88589 14.3708 6.7759 14.2093 6.61439C14.0478 6.45288 13.9378 6.24711 13.8933 6.02309C13.8487 5.79907 13.8716 5.56687 13.959 5.35585C14.0464 5.14483 14.1944 4.96447 14.3843 4.83757C14.5743 4.71067 14.7975 4.64294 15.0259 4.64294C15.3322 4.64294 15.626 4.76461 15.8425 4.98119C16.0591 5.19777 16.1808 5.49151 16.1808 5.79779Z" fill="black"/>
</svg>
