<svg width="42" height="42" viewBox="0 0 42 42" fill="none" xmlns="http://www.w3.org/2000/svg">
<path fill-rule="evenodd" clip-rule="evenodd" d="M20.6565 3.92676C24.7317 3.92676 28.64 5.54564 31.5217 8.42728C34.4033 11.3089 36.0222 15.2173 36.0222 19.2925C36.0222 24.5408 33.1608 28.8363 30.1457 31.918C28.6392 33.441 26.9955 34.8218 25.2354 36.0429L24.5081 36.538L24.1667 36.7651L23.523 37.1748L22.9494 37.5248L22.2391 37.938C21.757 38.2131 21.2115 38.3579 20.6565 38.3579C20.1014 38.3579 19.5559 38.2131 19.0738 37.938L18.3635 37.5248L17.4757 36.9785L17.1479 36.7651L16.4479 36.299C14.5491 35.0142 12.7805 33.547 11.1673 31.918C8.15215 28.8346 5.29071 24.5408 5.29071 19.2925C5.29071 15.2173 6.9096 11.3089 9.79123 8.42728C12.6729 5.54564 16.5812 3.92676 20.6565 3.92676ZM20.6565 7.34137C17.4868 7.34137 14.447 8.6005 12.2057 10.8418C9.96445 13.083 8.70532 16.1229 8.70532 19.2925C8.70532 23.2569 10.877 26.7363 13.607 29.5295C14.7808 30.7178 16.0496 31.8084 17.4006 32.7904L18.1826 33.347C18.4352 33.5235 18.6783 33.6874 18.9116 33.8387L19.5774 34.2656L20.163 34.6224L20.6565 34.9109L21.4333 34.4517L22.0599 34.059C22.3933 33.8473 22.7502 33.61 23.1303 33.347L23.9123 32.7904C25.2633 31.8084 26.5321 30.7178 27.7059 29.5295C30.4359 26.7381 32.6076 23.2569 32.6076 19.2925C32.6076 16.1229 31.3484 13.083 29.1072 10.8418C26.8659 8.6005 23.8261 7.34137 20.6565 7.34137ZM20.6565 12.4633C22.4677 12.4633 24.2047 13.1828 25.4854 14.4635C26.7662 15.7442 27.4857 17.4813 27.4857 19.2925C27.4857 21.1037 26.7662 22.8408 25.4854 24.1215C24.2047 25.4022 22.4677 26.1217 20.6565 26.1217C18.8452 26.1217 17.1082 25.4022 15.8275 24.1215C14.5467 22.8408 13.8272 21.1037 13.8272 19.2925C13.8272 17.4813 14.5467 15.7442 15.8275 14.4635C17.1082 13.1828 18.8452 12.4633 20.6565 12.4633ZM20.6565 15.8779C19.7508 15.8779 18.8823 16.2376 18.242 16.878C17.6016 17.5184 17.2418 18.3869 17.2418 19.2925C17.2418 20.1981 17.6016 21.0666 18.242 21.707C18.8823 22.3474 19.7508 22.7071 20.6565 22.7071C21.5621 22.7071 22.4306 22.3474 23.0709 21.707C23.7113 21.0666 24.0711 20.1981 24.0711 19.2925C24.0711 18.3869 23.7113 17.5184 23.0709 16.878C22.4306 16.2376 21.5621 15.8779 20.6565 15.8779Z" fill="white"/>
</svg>
