<svg width="1440" height="918" viewBox="0 0 1440 918" fill="none" xmlns="http://www.w3.org/2000/svg">
<rect y="12" width="1440" height="906" fill="#FFFFF2"/>
<path d="M171.388 131C172.047 131.822 172.697 132.66 173.373 133.473C174.409 134.714 175.35 136.058 176.523 137.162C179.612 140.064 183.318 141.091 187.495 140.389C189.523 140.047 191.552 139.653 193.717 139.259C192.981 139.85 192.348 140.355 191.714 140.877C190.294 142.058 188.762 143.128 187.486 144.454C184.559 147.493 183.507 151.19 184.174 155.349C184.482 157.284 184.867 159.209 185.21 161.144C185.235 161.272 185.244 161.392 185.278 161.657C184.328 160.468 183.481 159.372 182.582 158.311C181.666 157.224 180.819 156.051 179.758 155.127C176.557 152.328 172.8 151.447 168.632 152.251C166.774 152.611 164.9 152.936 163 153.201C163.967 152.422 164.943 151.661 165.901 150.873C167.228 149.795 168.657 148.819 169.736 147.45C172.166 144.377 173.065 140.911 172.389 137.042C172.038 135.048 171.67 133.054 171.31 131.06C171.345 131.043 171.37 131.017 171.388 131Z" fill="#E1D5E3"/>
<path d="M1337.39 124C1338.05 124.822 1338.7 125.66 1339.37 126.473C1340.41 127.714 1341.35 129.058 1342.52 130.162C1345.61 133.064 1349.32 134.091 1353.49 133.389C1355.52 133.047 1357.55 132.653 1359.72 132.259C1358.98 132.85 1358.35 133.355 1357.71 133.877C1356.29 135.058 1354.76 136.128 1353.49 137.454C1350.56 140.493 1349.51 144.19 1350.17 148.349C1350.48 150.284 1350.87 152.209 1351.21 154.144C1351.24 154.272 1351.24 154.392 1351.28 154.657C1350.33 153.468 1349.48 152.372 1348.58 151.311C1347.67 150.224 1346.82 149.051 1345.76 148.127C1342.56 145.328 1338.8 144.447 1334.63 145.251C1332.77 145.611 1330.9 145.936 1329 146.201C1329.97 145.422 1330.94 144.661 1331.9 143.873C1333.23 142.795 1334.66 141.819 1335.74 140.45C1338.17 137.377 1339.07 133.911 1338.39 130.042C1338.04 128.048 1337.67 126.054 1337.31 124.06C1337.34 124.043 1337.37 124.017 1337.39 124Z" fill="#E1D5E3"/>
<path d="M930.664 604C932.444 606.224 934.202 608.495 936.029 610.697C938.827 614.056 941.371 617.694 944.539 620.683C952.888 628.539 962.902 631.319 974.187 629.419C979.668 628.492 985.149 627.426 991 626.36C989.011 627.959 987.3 629.326 985.588 630.74C981.75 633.937 977.61 636.834 974.164 640.425C966.255 648.651 963.41 658.661 965.214 669.923C966.047 675.159 967.087 680.373 968.013 685.61C968.082 685.957 968.105 686.282 968.198 687C965.631 683.779 963.341 680.813 960.913 677.94C958.438 674.997 956.149 671.823 953.281 669.32C944.632 661.743 934.48 659.357 923.217 661.535C918.199 662.508 913.134 663.388 908 664.107C910.613 661.998 913.25 659.936 915.84 657.804C919.424 654.884 923.286 652.243 926.2 648.535C932.768 640.217 935.196 630.832 933.369 620.359C932.421 614.96 931.427 609.561 930.456 604.162C930.548 604.116 930.617 604.046 930.664 604Z" fill="#E1D5E3"/>
<path d="M84.6637 829C86.4444 831.224 88.202 833.495 90.029 835.697C92.8272 839.056 95.3711 842.694 98.5394 845.683C106.888 853.539 116.902 856.319 128.187 854.419C133.668 853.492 139.149 852.426 145 851.36C143.011 852.959 141.3 854.326 139.588 855.74C135.75 858.937 131.61 861.834 128.164 865.425C120.255 873.651 117.41 883.661 119.214 894.923C120.047 900.159 121.087 905.373 122.013 910.61C122.082 910.957 122.105 911.282 122.198 912C119.631 908.779 117.341 905.813 114.913 902.94C112.438 899.997 110.149 896.823 107.281 894.32C98.6319 886.743 88.4795 884.357 77.2171 886.535C72.1987 887.508 67.134 888.388 62 889.107C64.6133 886.998 67.2497 884.936 69.8398 882.804C73.4244 879.884 77.2864 877.243 80.2003 873.535C86.7682 865.217 89.1964 855.832 87.3695 845.359C86.4213 839.96 85.4269 834.561 84.4556 829.162C84.5481 829.116 84.6174 829.046 84.6637 829Z" fill="#E1D5E3"/>
<path d="M466.557 734C467.308 734.911 468.049 735.841 468.819 736.743C469.999 738.119 471.072 739.61 472.408 740.834C475.929 744.052 480.151 745.191 484.91 744.413C487.222 744.033 489.533 743.596 492 743.16C491.161 743.815 490.44 744.375 489.718 744.954C488.099 746.264 486.354 747.45 484.901 748.921C481.565 752.291 480.366 756.391 481.126 761.004C481.478 763.15 481.916 765.285 482.306 767.43C482.336 767.573 482.346 767.706 482.385 768C481.302 766.681 480.337 765.466 479.313 764.289C478.269 763.083 477.304 761.783 476.094 760.758C472.447 757.654 468.166 756.676 463.417 757.568C461.301 757.967 459.165 758.328 457 758.622C458.102 757.758 459.214 756.913 460.306 756.04C461.817 754.844 463.446 753.762 464.675 752.243C467.444 748.836 468.468 744.992 467.698 740.701C467.298 738.49 466.879 736.278 466.469 734.066C466.508 734.047 466.537 734.019 466.557 734Z" fill="#E1D5E3"/>
<path d="M448.557 45C449.308 45.9112 450.049 46.8414 450.819 47.7432C451.999 49.1195 453.072 50.6097 454.408 51.8342C457.929 55.0519 462.151 56.191 466.91 55.4126C469.222 55.0329 471.533 54.5963 474 54.1597C473.161 54.8146 472.44 55.3747 471.718 55.9537C470.099 57.2635 468.354 58.45 466.901 59.9213C463.565 63.2909 462.366 67.3914 463.126 72.0045C463.478 74.1496 463.916 76.2853 464.306 78.4305C464.336 78.5729 464.346 78.7058 464.385 79C463.302 77.6806 462.337 76.4657 461.313 75.2887C460.269 74.0832 459.304 72.7828 458.094 71.7577C454.447 68.6538 450.166 67.6762 445.417 68.5684C443.301 68.9671 441.165 69.3277 439 69.622C440.102 68.7582 441.214 67.9135 442.306 67.0402C443.817 65.8442 445.446 64.7621 446.675 63.2434C449.444 59.8358 450.468 55.9916 449.698 51.7013C449.298 49.4897 448.879 47.2781 448.469 45.0664C448.508 45.0475 448.537 45.019 448.557 45Z" fill="#E1D5E3"/>
<path d="M711.107 98C712.137 99.2864 713.153 100.6 714.21 101.873C715.828 103.816 717.299 105.92 719.131 107.648C723.959 112.191 729.75 113.799 736.277 112.7C739.447 112.164 742.616 111.548 746 110.931C744.85 111.856 743.86 112.647 742.87 113.464C740.65 115.313 738.256 116.988 736.264 119.065C731.69 123.822 730.045 129.611 731.088 136.124C731.569 139.152 732.171 142.168 732.706 145.196C732.746 145.397 732.76 145.585 732.813 146C731.329 144.137 730.004 142.422 728.6 140.76C727.169 139.059 725.845 137.223 724.187 135.776C719.185 131.394 713.313 130.013 706.8 131.273C703.898 131.836 700.969 132.345 698 132.76C699.511 131.541 701.036 130.348 702.534 129.116C704.607 127.427 706.84 125.899 708.525 123.755C712.324 118.945 713.728 113.518 712.671 107.461C712.123 104.338 711.548 101.216 710.986 98.0938C711.04 98.067 711.08 98.0268 711.107 98Z" fill="#E1D5E3"/>
<path d="M27.1067 31C28.1365 32.2864 29.153 33.5997 30.2095 34.8727C31.8278 36.8157 33.299 38.9196 35.1312 40.6482C39.9593 45.191 45.7503 46.799 52.277 45.7002C55.4466 45.1642 58.6163 44.5477 62 43.9313C60.8498 44.8559 59.8601 45.6466 58.8704 46.464C56.6503 48.3132 54.2563 49.9883 52.2636 52.0653C47.6896 56.8224 46.0446 62.6114 47.0878 69.124C47.5692 72.1524 48.1711 75.1675 48.706 78.196C48.7462 78.397 48.7595 78.5846 48.813 79C47.3285 77.1374 46.0045 75.4221 44.6002 73.7605C43.1691 72.0586 41.8451 70.2228 40.1867 68.7755C35.1847 64.3936 29.3135 63.0134 22.8002 64.273C19.898 64.8358 16.9691 65.3451 14 65.7605C15.5113 64.541 17.0359 63.3484 18.5339 62.1156C20.6069 60.4271 22.8403 58.8995 24.5255 56.7554C28.3238 51.9447 29.7281 46.5176 28.6715 40.4606C28.1232 37.3384 27.5481 34.2161 26.9863 31.0938C27.0398 31.067 27.08 31.0268 27.1067 31Z" fill="#E1D5E3"/>
<path d="M1279.3 311C1281.21 313.385 1283.1 315.82 1285.06 318.181C1288.06 321.783 1290.78 325.684 1294.18 328.889C1303.13 337.312 1313.87 340.294 1325.97 338.257C1331.85 337.263 1337.73 336.12 1344 334.977C1341.87 336.691 1340.03 338.157 1338.2 339.673C1334.08 343.102 1329.64 346.207 1325.95 350.059C1317.47 358.879 1314.42 369.613 1316.35 381.688C1317.24 387.303 1318.36 392.894 1319.35 398.509C1319.43 398.882 1319.45 399.23 1319.55 400C1316.8 396.546 1314.34 393.366 1311.74 390.285C1309.08 387.13 1306.63 383.726 1303.55 381.042C1294.28 372.917 1283.39 370.358 1271.32 372.694C1265.94 373.737 1260.51 374.681 1255 375.452C1257.8 373.191 1260.63 370.979 1263.41 368.693C1267.25 365.563 1271.39 362.73 1274.52 358.755C1281.56 349.835 1284.16 339.772 1282.2 328.542C1281.19 322.752 1280.12 316.963 1279.08 311.174C1279.18 311.124 1279.25 311.05 1279.3 311Z" fill="#E1D5E3"/>
<path d="M1248.3 662C1250.21 664.385 1252.1 666.82 1254.06 669.181C1257.06 672.783 1259.78 676.684 1263.18 679.889C1272.13 688.312 1282.87 691.294 1294.97 689.257C1300.85 688.263 1306.73 687.12 1313 685.977C1310.87 687.691 1309.03 689.157 1307.2 690.673C1303.08 694.102 1298.64 697.207 1294.95 701.059C1286.47 709.879 1283.42 720.613 1285.35 732.688C1286.24 738.303 1287.36 743.894 1288.35 749.509C1288.43 749.882 1288.45 750.23 1288.55 751C1285.8 747.546 1283.34 744.366 1280.74 741.285C1278.08 738.13 1275.63 734.726 1272.55 732.042C1263.28 723.917 1252.39 721.358 1240.32 723.694C1234.94 724.737 1229.51 725.681 1224 726.452C1226.8 724.191 1229.63 721.979 1232.41 719.693C1236.25 716.563 1240.39 713.73 1243.52 709.755C1250.56 700.835 1253.16 690.772 1251.2 679.542C1250.19 673.752 1249.12 667.963 1248.08 662.174C1248.18 662.124 1248.25 662.05 1248.3 662Z" fill="#E1D5E3"/>
<path d="M62.302 280C64.2115 282.385 66.0961 284.82 68.0552 287.181C71.0557 290.783 73.7835 294.684 77.1808 297.889C86.1329 306.312 96.8704 309.294 108.972 307.257C114.849 306.263 120.726 305.12 127 303.977C124.867 305.691 123.032 307.157 121.197 308.673C117.081 312.102 112.642 315.207 108.947 319.059C100.466 327.879 97.416 338.613 99.3502 350.688C100.243 356.303 101.359 361.894 102.351 367.509C102.425 367.882 102.45 368.23 102.549 369C99.7966 365.546 97.3416 362.366 94.7378 359.285C92.0844 356.13 89.6294 352.726 86.5545 350.042C77.28 341.917 66.3937 339.358 54.3171 341.694C48.9359 342.737 43.5052 343.681 38 344.452C40.8022 342.191 43.6291 339.979 46.4065 337.693C50.2502 334.563 54.3915 331.73 57.516 327.755C64.5587 318.835 67.1624 308.772 65.2034 297.542C64.1867 291.752 63.1204 285.963 62.0789 280.174C62.178 280.124 62.2524 280.05 62.302 280Z" fill="#E1D5E3"/>
<path d="M770.302 784C772.211 786.385 774.096 788.82 776.055 791.181C779.056 794.783 781.784 798.684 785.181 801.889C794.133 810.312 804.87 813.294 816.972 811.257C822.849 810.263 828.726 809.12 835 807.977C832.867 809.691 831.032 811.157 829.197 812.673C825.081 816.102 820.642 819.207 816.947 823.059C808.466 831.879 805.416 842.613 807.35 854.688C808.243 860.303 809.359 865.894 810.351 871.509C810.425 871.882 810.45 872.23 810.549 873C807.797 869.546 805.342 866.366 802.738 863.285C800.084 860.13 797.629 856.726 794.554 854.042C785.28 845.917 774.394 843.358 762.317 845.694C756.936 846.737 751.505 847.681 746 848.452C748.802 846.191 751.629 843.979 754.407 841.693C758.25 838.563 762.391 835.73 765.516 831.755C772.559 822.835 775.162 812.772 773.203 801.542C772.187 795.752 771.12 789.963 770.079 784.174C770.178 784.124 770.252 784.05 770.302 784Z" fill="#E1D5E3"/>
<path d="M1093.38 155C1094.67 156.608 1095.94 158.25 1097.26 159.841C1099.28 162.27 1101.12 164.899 1103.41 167.06C1109.45 172.739 1116.69 174.749 1124.85 173.375C1128.81 172.705 1132.77 171.935 1137 171.164C1135.56 172.32 1134.33 173.308 1133.09 174.33C1130.31 176.642 1127.32 178.735 1124.83 181.332C1119.11 187.278 1117.06 194.514 1118.36 202.655C1118.96 206.441 1119.71 210.209 1120.38 213.995C1120.43 214.246 1120.45 214.481 1120.52 215C1118.66 212.672 1117.01 210.528 1115.25 208.451C1113.46 206.323 1111.81 204.028 1109.73 202.219C1103.48 196.742 1096.14 195.017 1088 196.591C1084.37 197.295 1080.71 197.931 1077 198.451C1078.89 196.926 1080.79 195.436 1082.67 193.894C1085.26 191.784 1088.05 189.874 1090.16 187.194C1094.9 181.181 1096.66 174.397 1095.34 166.826C1094.65 162.923 1093.94 159.02 1093.23 155.117C1093.3 155.084 1093.35 155.034 1093.38 155Z" fill="#E1D5E3"/>
<path d="M194.383 602C195.671 603.608 196.941 605.25 198.262 606.841C200.285 609.27 202.124 611.899 204.414 614.06C210.449 619.739 217.688 621.749 225.846 620.375C229.808 619.705 233.77 618.935 238 618.164C236.562 619.32 235.325 620.308 234.088 621.33C231.313 623.642 228.32 625.735 225.829 628.332C220.112 634.278 218.056 641.514 219.36 649.655C219.962 653.441 220.714 657.209 221.383 660.995C221.433 661.246 221.449 661.481 221.516 662C219.661 659.672 218.006 657.528 216.25 655.451C214.461 653.323 212.806 651.028 210.733 649.219C204.481 643.742 197.142 642.017 189 643.591C185.373 644.295 181.711 644.931 178 645.451C179.889 643.926 181.795 642.436 183.667 640.894C186.259 638.784 189.05 636.874 191.157 634.194C195.905 628.181 197.66 621.397 196.339 613.826C195.654 609.923 194.935 606.02 194.233 602.117C194.3 602.084 194.35 602.034 194.383 602Z" fill="#E1D5E3"/>
</svg>
