<svg width="50" height="50" viewBox="0 0 50 50" fill="none" xmlns="http://www.w3.org/2000/svg">
<path d="M45.4373 26.5416L43.729 25.2291V24.7708L45.3957 23.4583C45.729 23.2083 45.8123 22.7499 45.604 22.3958L43.8332 19.3124C43.7594 19.1846 43.653 19.0787 43.5249 19.0055C43.3968 18.9323 43.2516 18.8944 43.104 18.8958C42.9998 18.8958 42.8957 18.9166 42.7915 18.9583L40.8123 19.7499C40.6457 19.6458 40.5832 19.6041 40.4165 19.5208L40.104 17.4166C40.0789 17.2121 39.9807 17.0236 39.8276 16.8857C39.6745 16.7479 39.4767 16.6701 39.2707 16.6666H35.7082C35.2915 16.6666 34.9373 16.9791 34.8748 17.3749L34.5832 19.4791C34.5207 19.5208 34.4373 19.5416 34.3748 19.5833L34.1873 19.7083L32.2082 18.9166C32.0212 18.839 31.8123 18.8321 31.6206 18.8973C31.4289 18.9625 31.2675 19.0952 31.1665 19.2708L29.3957 22.3541C29.1873 22.7083 29.2707 23.1666 29.604 23.4166L31.2707 24.7291V25.2083L29.604 26.5208C29.4448 26.6413 29.3355 26.8163 29.2971 27.0122C29.2586 27.2082 29.2937 27.4115 29.3957 27.5833L31.1665 30.6666C31.3123 30.9374 31.604 31.0833 31.8957 31.0833C31.9998 31.0833 32.104 31.0624 32.2082 31.0208L34.1873 30.2499C34.354 30.3541 34.4373 30.3958 34.604 30.4791L34.9165 32.5833C34.979 32.9999 35.3332 33.2916 35.7498 33.2916H39.3123C39.729 33.2916 40.0832 32.9791 40.1457 32.5833L40.4582 30.4791C40.5207 30.4374 40.604 30.4166 40.6665 30.3749L40.854 30.2499L42.8332 31.0416C43.0202 31.1192 43.2291 31.126 43.4208 31.0608C43.6125 30.9957 43.7739 30.8629 43.8748 30.6874L45.6457 27.6041C45.7476 27.4323 45.7827 27.2291 45.7443 27.0331C45.7058 26.8371 45.5966 26.6621 45.4373 26.5416ZM37.4998 28.1249C35.7707 28.1249 34.3748 26.7291 34.3748 24.9999C34.3748 23.2708 35.7707 21.8749 37.4998 21.8749C39.229 21.8749 40.6248 23.2708 40.6248 24.9999C40.6248 26.7291 39.229 28.1249 37.4998 28.1249ZM35.4165 37.4999H14.5832V12.4999H35.4165V14.5833H39.5832V6.24992C39.5832 3.95825 37.7082 2.08325 35.4165 2.08325H14.5832C12.2915 2.08325 10.4165 3.95825 10.4165 6.24992V43.7499C10.4165 46.0416 12.2915 47.9166 14.5832 47.9166H35.4165C37.7082 47.9166 39.5832 46.0416 39.5832 43.7499V35.4166H35.4165V37.4999ZM14.5832 6.24992H35.4165V8.33325H14.5832V6.24992ZM35.4165 43.7499H14.5832V41.6666H35.4165V43.7499Z" fill="black"/>
<path opacity="0.3" d="M14.5835 6.25H35.4168V8.33333H14.5835V6.25ZM14.5835 41.6667H35.4168V43.75H14.5835V41.6667Z" fill="black"/>
</svg>
