<svg width="42" height="42" viewBox="0 0 42 42" fill="none" xmlns="http://www.w3.org/2000/svg">
<path d="M37.8654 29.3999V34.5218C37.8673 34.9973 37.7699 35.468 37.5795 35.9036C37.389 36.3393 37.1096 36.7304 36.7592 37.0518C36.4088 37.3733 35.9952 37.618 35.5448 37.7703C35.0943 37.9227 34.6171 37.9792 34.1435 37.9364C28.8898 37.3656 23.8433 35.5704 19.4095 32.695C15.2843 30.0737 11.7869 26.5763 9.16562 22.4512C6.28024 17.9972 4.48461 12.9261 3.9242 7.64885C3.88153 7.17672 3.93764 6.70088 4.08895 6.25163C4.24026 5.80238 4.48346 5.38955 4.80306 5.03944C5.12266 4.68933 5.51166 4.40959 5.94529 4.21806C6.37892 4.02652 6.84768 3.92737 7.32173 3.92692H12.4436C13.2722 3.91877 14.0755 4.21218 14.7037 4.75246C15.3319 5.29274 15.7423 6.04304 15.8583 6.86349C16.0744 8.50261 16.4754 10.112 17.0534 11.661C17.2831 12.2721 17.3328 12.9362 17.1966 13.5747C17.0605 14.2132 16.7441 14.7992 16.2851 15.2634L14.1168 17.4317C16.5472 21.706 20.0863 25.2451 24.3606 27.6755L26.5289 25.5073C26.9931 25.0482 27.5792 24.7319 28.2176 24.5957C28.8561 24.4595 29.5202 24.5093 30.1313 24.739C31.6803 25.317 33.2897 25.7179 34.9289 25.9341C35.7582 26.0511 36.5156 26.4688 37.0571 27.1078C37.5985 27.7469 37.8862 28.5626 37.8654 29.3999Z" stroke="white" stroke-width="2" stroke-linecap="round" stroke-linejoin="round"/>
</svg>
