<svg width="21" height="20" viewBox="0 0 21 20" fill="none" xmlns="http://www.w3.org/2000/svg">
<path d="M18.5422 2.04595C18.4453 1.96233 18.3275 1.90672 18.2014 1.88511C18.0753 1.86349 17.9457 1.8767 17.8265 1.92329L1.99366 8.11941C1.76927 8.20667 1.5793 8.36445 1.45235 8.56902C1.32539 8.77358 1.26833 9.01385 1.28974 9.25365C1.31116 9.49345 1.4099 9.7198 1.57109 9.89863C1.73228 10.0775 1.9472 10.1991 2.1835 10.2452L6.28586 11.0507V15.6249C6.28506 15.8741 6.3591 16.1177 6.4984 16.3243C6.63769 16.5309 6.83583 16.6909 7.06712 16.7835C7.29805 16.8778 7.55201 16.9004 7.79598 16.8485C8.03995 16.7965 8.26264 16.6723 8.43509 16.4921L10.4132 14.4405L13.5515 17.1874C13.7779 17.3883 14.07 17.4994 14.3726 17.4999C14.5052 17.4998 14.637 17.479 14.7632 17.4382C14.9695 17.3728 15.1549 17.2545 15.3012 17.095C15.4474 16.9356 15.5494 16.7407 15.5968 16.5296L18.7679 2.73424C18.7963 2.60982 18.7903 2.48003 18.7505 2.35878C18.7107 2.23753 18.6387 2.12939 18.5422 2.04595ZM13.7656 4.85846L6.76633 9.87098L2.89132 9.11082L13.7656 4.85846ZM7.53587 15.6249V11.9155L9.4726 13.614L7.53587 15.6249ZM14.3742 16.2499L7.91478 10.5858L17.2117 3.92252L14.3742 16.2499Z" fill="black"/>
</svg>
