<svg width="17" height="18" viewBox="0 0 17 18" fill="none" xmlns="http://www.w3.org/2000/svg">
<path d="M15.6677 4.62502C14.6734 4.62398 13.7202 4.22856 13.0171 3.52552C12.3141 2.82248 11.9187 1.86925 11.9177 0.875003C11.9177 0.709242 11.8518 0.55027 11.7346 0.433059C11.6174 0.315848 11.4584 0.25 11.2926 0.25H8.16764C8.00187 0.25 7.8429 0.315848 7.72569 0.433059C7.60848 0.55027 7.54263 0.709242 7.54263 0.875003V11.1875C7.54251 11.4671 7.46736 11.7416 7.32502 11.9822C7.18269 12.2229 6.97839 12.421 6.73343 12.5558C6.48847 12.6906 6.21183 12.7572 5.93236 12.7486C5.65289 12.7401 5.38084 12.6567 5.14458 12.5072C4.90831 12.3576 4.7165 12.1475 4.58914 11.8986C4.46178 11.6497 4.40354 11.3711 4.4205 11.0921C4.43746 10.813 4.52899 10.5436 4.68555 10.3119C4.84211 10.0802 5.05796 9.89485 5.31059 9.77504C5.41746 9.72432 5.50773 9.64432 5.57093 9.54434C5.63413 9.44435 5.66766 9.32848 5.66763 9.21019V5.87502C5.66767 5.78366 5.64767 5.6934 5.60906 5.61061C5.57045 5.52781 5.51416 5.45448 5.44414 5.39578C5.37413 5.33709 5.2921 5.29446 5.20383 5.2709C5.11556 5.24733 5.0232 5.24341 4.93325 5.2594C2.14495 5.75627 0.0426025 8.30472 0.0426025 11.1875C0.0426025 12.7623 0.668161 14.2725 1.78166 15.386C2.89516 16.4995 4.4054 17.1251 5.98013 17.1251C7.55486 17.1251 9.06509 16.4995 10.1786 15.386C11.2921 14.2725 11.9177 12.7623 11.9177 11.1875V8.08519C13.0752 8.68913 14.362 9.00307 15.6677 9.00004C15.8334 9.00004 15.9924 8.93419 16.1096 8.81698C16.2268 8.69977 16.2927 8.54079 16.2927 8.37503V5.25002C16.2927 5.08426 16.2268 4.92529 16.1096 4.80808C15.9924 4.69087 15.8334 4.62502 15.6677 4.62502ZM15.0427 7.72191C13.8213 7.61368 12.6518 7.17777 11.6575 6.46018C11.564 6.39299 11.4539 6.35292 11.3391 6.34437C11.2243 6.33582 11.1094 6.35913 11.007 6.41173C10.9046 6.46433 10.8188 6.54418 10.7589 6.64247C10.699 6.74076 10.6674 6.85368 10.6676 6.96878V11.1875C10.6676 12.4308 10.1738 13.623 9.2947 14.5021C8.41562 15.3812 7.22333 15.8751 5.98013 15.8751C4.73692 15.8751 3.54463 15.3812 2.66555 14.5021C1.78647 13.623 1.29261 12.4308 1.29261 11.1875C1.29261 9.1641 2.59261 7.34925 4.41762 6.68753V8.84925C4.0136 9.1192 3.6864 9.48923 3.46793 9.92325C3.24946 10.3573 3.14716 10.8405 3.171 11.3258C3.19485 11.8112 3.34403 12.282 3.604 12.6925C3.86397 13.1031 4.22586 13.4392 4.65441 13.6683C5.08295 13.8973 5.56353 14.0114 6.04929 13.9995C6.53505 13.9875 7.00944 13.8499 7.4262 13.6001C7.84296 13.3502 8.18789 12.9967 8.42736 12.5739C8.66683 12.1511 8.79268 11.6735 8.79264 11.1875V1.50001H10.7067C10.8473 2.60085 11.3493 3.6239 12.134 4.40864C12.9188 5.19338 13.9418 5.6954 15.0427 5.83596V7.72191Z" fill="black"/>
</svg>
