<svg width="18" height="16" viewBox="0 0 18 16" fill="none" xmlns="http://www.w3.org/2000/svg">
<path d="M17.7149 2.38529C17.6676 2.27107 17.5875 2.17345 17.4847 2.10475C17.382 2.03605 17.2611 1.99937 17.1375 1.99935H14.7602C14.4278 1.43386 13.9547 0.963996 13.387 0.635438C12.8193 0.306881 12.1762 0.130808 11.5203 0.124339C11.0316 0.117929 10.5466 0.209319 10.0938 0.39313C9.641 0.576941 9.22951 0.849461 8.88358 1.19466C8.52754 1.54405 8.24495 1.9611 8.05242 2.42129C7.85989 2.88148 7.76131 3.37552 7.76248 3.87435V4.35014C4.61715 3.52045 2.04449 0.961842 2.01714 0.934498C1.93329 0.849905 1.82701 0.791033 1.71083 0.764816C1.59464 0.738598 1.47338 0.746127 1.36133 0.786515C1.24927 0.826903 1.15109 0.898469 1.07835 0.992785C1.00561 1.0871 0.961331 1.20024 0.950732 1.31887C0.614012 5.05248 1.69839 7.55093 2.66949 8.98922C3.14299 9.70023 3.71901 10.3373 4.37887 10.8799C3.18902 12.2494 1.31558 12.9689 1.29526 12.9767C1.20707 13.0098 1.12748 13.0623 1.06245 13.1304C0.997412 13.1985 0.948609 13.2805 0.919686 13.3701C0.890763 13.4597 0.882467 13.5547 0.895419 13.648C0.908371 13.7413 0.942236 13.8304 0.994482 13.9088C1.05308 13.9963 1.28745 14.3033 1.86011 14.59C2.56793 14.9447 3.50309 15.1244 4.63747 15.1244C10.1586 15.1244 14.7719 10.8728 15.243 5.40249L17.5797 3.06654C17.6671 2.97908 17.7266 2.86768 17.7506 2.74641C17.7747 2.62515 17.7622 2.49948 17.7149 2.38529ZM14.1992 4.68295C14.0921 4.79037 14.0276 4.9331 14.018 5.08452C13.7 10.0134 9.58123 13.8744 4.63747 13.8744C3.81246 13.8744 3.23121 13.765 2.8234 13.6338C3.72262 13.1455 4.97653 12.3056 5.78278 11.0963C5.8301 11.0251 5.86234 10.9451 5.87752 10.861C5.89269 10.777 5.89047 10.6907 5.87099 10.6075C5.85152 10.5244 5.81521 10.4461 5.76429 10.3775C5.71338 10.3089 5.64894 10.2515 5.57497 10.2088C5.53825 10.1877 2.14449 8.15094 2.13746 2.70872C3.38746 3.72435 5.67263 5.30014 8.28357 5.73921C8.37306 5.75429 8.46475 5.74971 8.55229 5.72578C8.63982 5.70185 8.7211 5.65915 8.79046 5.60064C8.85983 5.54213 8.91562 5.46922 8.95396 5.38697C8.9923 5.30472 9.01227 5.21511 9.01248 5.12436V3.87435C9.01178 3.54095 9.07777 3.21078 9.20657 2.90326C9.33538 2.59575 9.52439 2.3171 9.76249 2.08372C9.99073 1.85505 10.2625 1.67445 10.5617 1.55261C10.861 1.43077 11.1816 1.37015 11.5047 1.37434C12.4937 1.38684 13.418 1.98997 13.8047 2.87513C13.8534 2.98642 13.9336 3.08108 14.0353 3.14755C14.137 3.21401 14.2559 3.24939 14.3773 3.24935H15.6274L14.1992 4.68295Z" fill="black"/>
</svg>
