<svg width="50" height="50" viewBox="0 0 50 50" fill="none" xmlns="http://www.w3.org/2000/svg">
<path d="M34.375 3.125H15.625C14.3818 3.125 13.1895 3.61886 12.3104 4.49794C11.4314 5.37701 10.9375 6.5693 10.9375 7.8125V42.1875C10.9375 43.4307 11.4314 44.623 12.3104 45.5021C13.1895 46.3811 14.3818 46.875 15.625 46.875H34.375C35.6182 46.875 36.8105 46.3811 37.6896 45.5021C38.5686 44.623 39.0625 43.4307 39.0625 42.1875V7.8125C39.0625 6.5693 38.5686 5.37701 37.6896 4.49794C36.8105 3.61886 35.6182 3.125 34.375 3.125ZM14.0625 12.5H35.9375V37.5H14.0625V12.5ZM15.625 6.25H34.375C34.7894 6.25 35.1868 6.41462 35.4799 6.70765C35.7729 7.00067 35.9375 7.3981 35.9375 7.8125V9.375H14.0625V7.8125C14.0625 7.3981 14.2271 7.00067 14.5201 6.70765C14.8132 6.41462 15.2106 6.25 15.625 6.25ZM34.375 43.75H15.625C15.2106 43.75 14.8132 43.5854 14.5201 43.2924C14.2271 42.9993 14.0625 42.6019 14.0625 42.1875V40.625H35.9375V42.1875C35.9375 42.6019 35.7729 42.9993 35.4799 43.2924C35.1868 43.5854 34.7894 43.75 34.375 43.75Z" fill="black"/>
</svg>
